<svg xmlns="http://www.w3.org/2000/svg" viewBox="0 0 36 36">
  <path fill="#3E721D" d="M28 0h-2c-1.105 0-2 .895-2 2v6h6V2c0-1.105-.895-2-2-2z"/>
  <path fill="#FFAC33" d="M6 2C2.686 2 0 4.686 0 8s2.686 6 6 6 6-2.686 6-6S9.314 2 6 2z"/>
  <path fill="#5C913B" d="M28 8H8c-1.104 0-2 .896-2 2s.896 2 2 2h20c1.104 0 2-.896 2-2s-.896-2-2-2z"/>
  <path fill="#FFDC5D" d="M6 4c2.209 0 4 1.791 4 4s-1.791 4-4 4-4-1.791-4-4 1.791-4 4-4z"/>
  <path fill="#3B88C3" d="M30 12H6l10 12v10h4V24l10-12z"/>
  <path fill="#55ACEE" d="M18 24L8 12h20l-10 12z"/>
</svg>
